<?xml version="1.0" encoding="UTF-8" standalone="no"?>
<!DOCTYPE svg PUBLIC "-//W3C//DTD SVG 1.1//EN"
 "http://www.w3.org/Graphics/SVG/1.1/DTD/svg11.dtd">
<!-- Generated by graphviz version 15.1.0 (20260618.0150)
 -->
<!-- Title: EKS GitOps Platform Architecture Pages: 1 -->
<svg width="2387pt" height="1862pt"
 viewBox="0.00 0.00 2387.00 1862.00" xmlns="http://www.w3.org/2000/svg" xmlns:xlink="http://www.w3.org/1999/xlink">
<g id="graph0" class="graph" transform="scale(1 1) rotate(0) translate(36 1826.15)">
<title>EKS GitOps Platform Architecture</title>
<polygon fill="white" stroke="none" points="-36,36 -36,-1826.15 2351.2,-1826.15 2351.2,36 -36,36"/>
<text xml:space="preserve" text-anchor="middle" x="1157.6" y="-10.85" font-family="Sans-Serif" font-size="22.00" fill="#2d3436">EKS GitOps Platform Architecture</text>
<g id="clust1" class="cluster">
<title>cluster_GitHub</title>
<path fill="#e5f5fd" stroke="#aeb6be" d="M236.05,-1576.15C236.05,-1576.15 640.25,-1576.15 640.25,-1576.15 646.25,-1576.15 652.25,-1582.15 652.25,-1588.15 652.25,-1588.15 652.25,-1770.15 652.25,-1770.15 652.25,-1776.15 646.25,-1782.15 640.25,-1782.15 640.25,-1782.15 236.05,-1782.15 236.05,-1782.15 230.05,-1782.15 224.05,-1776.15 224.05,-1770.15 224.05,-1770.15 224.05,-1588.15 224.05,-1588.15 224.05,-1582.15 230.05,-1576.15 236.05,-1576.15"/>
<text xml:space="preserve" text-anchor="middle" x="250.43" y="-1766.75" font-family="Sans-Serif" font-size="12.00" fill="#2d3436">GitHub</text>
</g>
<g id="clust2" class="cluster">
<title>cluster_AWS Account
ap&#45;southeast&#45;1</title>
<path fill="#e5f5fd" stroke="#aeb6be" d="M780.35,-180.15C780.35,-180.15 2295.2,-180.15 2295.2,-180.15 2301.2,-180.15 2307.2,-186.15 2307.2,-192.15 2307.2,-192.15 2307.2,-1559.15 2307.2,-1559.15 2307.2,-1565.15 2301.2,-1571.15 2295.2,-1571.15 2295.2,-1571.15 780.35,-1571.15 780.35,-1571.15 774.35,-1571.15 768.35,-1565.15 768.35,-1559.15 768.35,-1559.15 768.35,-192.15 768.35,-192.15 768.35,-186.15 774.35,-180.15 780.35,-180.15"/>
<text xml:space="preserve" text-anchor="middle" x="815.73" y="-1555.75" font-family="Sans-Serif" font-size="12.00" fill="#2d3436">AWS Account</text>
<text xml:space="preserve" text-anchor="middle" x="815.73" y="-1540" font-family="Sans-Serif" font-size="12.00" fill="#2d3436">ap&#45;southeast&#45;1</text>
</g>
<g id="clust3" class="cluster">
<title>cluster_VPC
created by Terraform</title>
<path fill="#ebf3e7" stroke="#aeb6be" d="M788.35,-188.15C788.35,-188.15 2287.2,-188.15 2287.2,-188.15 2293.2,-188.15 2299.2,-194.15 2299.2,-200.15 2299.2,-200.15 2299.2,-1338.15 2299.2,-1338.15 2299.2,-1344.15 2293.2,-1350.15 2287.2,-1350.15 2287.2,-1350.15 788.35,-1350.15 788.35,-1350.15 782.35,-1350.15 776.35,-1344.15 776.35,-1338.15 776.35,-1338.15 776.35,-200.15 776.35,-200.15 776.35,-194.15 782.35,-188.15 788.35,-188.15"/>
<text xml:space="preserve" text-anchor="middle" x="839.85" y="-1334.75" font-family="Sans-Serif" font-size="12.00" fill="#2d3436">VPC</text>
<text xml:space="preserve" text-anchor="middle" x="839.85" y="-1319" font-family="Sans-Serif" font-size="12.00" fill="#2d3436">created by Terraform</text>
</g>
<g id="clust4" class="cluster">
<title>cluster_Public Subnets</title>
<path fill="#ece8f6" stroke="#aeb6be" d="M1416.2,-196.15C1416.2,-196.15 1509,-196.15 1509,-196.15 1515,-196.15 1521,-202.15 1521,-208.15 1521,-208.15 1521,-606.15 1521,-606.15 1521,-612.15 1515,-618.15 1509,-618.15 1509,-618.15 1416.2,-618.15 1416.2,-618.15 1410.2,-618.15 1404.2,-612.15 1404.2,-606.15 1404.2,-606.15 1404.2,-208.15 1404.2,-208.15 1404.2,-202.15 1410.2,-196.15 1416.2,-196.15"/>
<text xml:space="preserve" text-anchor="middle" x="1450.83" y="-602.75" font-family="Sans-Serif" font-size="12.00" fill="#2d3436">Public Subnets</text>
</g>
<g id="clust5" class="cluster">
<title>cluster_Private Subnets</title>
<path fill="#ece8f6" stroke="#aeb6be" d="M796.35,-626.15C796.35,-626.15 2279.2,-626.15 2279.2,-626.15 2285.2,-626.15 2291.2,-632.15 2291.2,-638.15 2291.2,-638.15 2291.2,-1290.15 2291.2,-1290.15 2291.2,-1296.15 2285.2,-1302.15 2279.2,-1302.15 2279.2,-1302.15 796.35,-1302.15 796.35,-1302.15 790.35,-1302.15 784.35,-1296.15 784.35,-1290.15 784.35,-1290.15 784.35,-638.15 784.35,-638.15 784.35,-632.15 790.35,-626.15 796.35,-626.15"/>
<text xml:space="preserve" text-anchor="middle" x="833.23" y="-1286.75" font-family="Sans-Serif" font-size="12.00" fill="#2d3436">Private Subnets</text>
</g>
<g id="clust6" class="cluster">
<title>cluster_Kubernetes Platform</title>
<path fill="#fdf7e3" stroke="#aeb6be" d="M804.35,-808.15C804.35,-808.15 2271.2,-808.15 2271.2,-808.15 2277.2,-808.15 2283.2,-814.15 2283.2,-820.15 2283.2,-820.15 2283.2,-1258.15 2283.2,-1258.15 2283.2,-1264.15 2277.2,-1270.15 2271.2,-1270.15 2271.2,-1270.15 804.35,-1270.15 804.35,-1270.15 798.35,-1270.15 792.35,-1264.15 792.35,-1258.15 792.35,-1258.15 792.35,-820.15 792.35,-820.15 792.35,-814.15 798.35,-808.15 804.35,-808.15"/>
<text xml:space="preserve" text-anchor="middle" x="853.6" y="-1254.75" font-family="Sans-Serif" font-size="12.00" fill="#2d3436">Kubernetes Platform</text>
</g>
<g id="clust7" class="cluster">
<title>cluster_namespace: dev</title>
<path fill="#e5f5fd" stroke="#aeb6be" d="M1590,-816.15C1590,-816.15 2263.2,-816.15 2263.2,-816.15 2269.2,-816.15 2275.2,-822.15 2275.2,-828.15 2275.2,-828.15 2275.2,-1010.15 2275.2,-1010.15 2275.2,-1016.15 2269.2,-1022.15 2263.2,-1022.15 2263.2,-1022.15 1590,-1022.15 1590,-1022.15 1584,-1022.15 1578,-1016.15 1578,-1010.15 1578,-1010.15 1578,-828.15 1578,-828.15 1578,-822.15 1584,-816.15 1590,-816.15"/>
<text xml:space="preserve" text-anchor="middle" x="1628.38" y="-1006.75" font-family="Sans-Serif" font-size="12.00" fill="#2d3436">namespace: dev</text>
</g>
<g id="clust8" class="cluster">
<title>cluster_namespace: prod</title>
<path fill="#e5f5fd" stroke="#aeb6be" d="M1590,-1032.15C1590,-1032.15 2263.2,-1032.15 2263.2,-1032.15 2269.2,-1032.15 2275.2,-1038.15 2275.2,-1044.15 2275.2,-1044.15 2275.2,-1226.15 2275.2,-1226.15 2275.2,-1232.15 2269.2,-1238.15 2263.2,-1238.15 2263.2,-1238.15 1590,-1238.15 1590,-1238.15 1584,-1238.15 1578,-1232.15 1578,-1226.15 1578,-1226.15 1578,-1044.15 1578,-1044.15 1578,-1038.15 1584,-1032.15 1590,-1032.15"/>
<text xml:space="preserve" text-anchor="middle" x="1631.38" y="-1222.75" font-family="Sans-Serif" font-size="12.00" fill="#2d3436">namespace: prod</text>
</g>
<!-- cc478b35ded04f3f84b9da3b6e8e5508 -->
<g id="node1" class="node">
<title>cc478b35ded04f3f84b9da3b6e8e5508</title>
<image xlink:href="C:\Users\Qtienle\AppData\Roaming\Python\Python314\site-packages\resources/onprem/client\user.png" width="100.8px" height="100.8px" preserveAspectRatio="xMinYMin meet" x="9.9476e-14" y="-1717.55"/>
<text xml:space="preserve" text-anchor="middle" x="50.4" y="-1603.1" font-family="Sans-Serif" font-size="12.00" fill="#2d3436">Developer</text>
</g>
<!-- 7050caf5ec9c46d0b767ee720e8e96ab -->
<g id="node2" class="node">
<title>7050caf5ec9c46d0b767ee720e8e96ab</title>
<image xlink:href="C:\Users\Qtienle\AppData\Roaming\Python\Python314\site-packages\resources/onprem/vcs\github.png" width="100.8px" height="100.8px" preserveAspectRatio="xMinYMin meet" x="232.05" y="-1717.55"/>
<text xml:space="preserve" text-anchor="middle" x="282.45" y="-1604.45" font-family="Sans-Serif" font-size="12.00" fill="#2d3436">Repo</text>
<text xml:space="preserve" text-anchor="middle" x="282.45" y="-1588.7" font-family="Sans-Serif" font-size="12.00" fill="#2d3436">app + Helm + Argo CD manifests</text>
</g>
<!-- cc478b35ded04f3f84b9da3b6e8e5508&#45;&gt;7050caf5ec9c46d0b767ee720e8e96ab -->
<g id="edge1" class="edge">
<title>cc478b35ded04f3f84b9da3b6e8e5508&#45;&gt;7050caf5ec9c46d0b767ee720e8e96ab</title>
<path fill="none" stroke="#374151" d="M100.75,-1667.15C100.75,-1667.15 220.68,-1667.15 220.68,-1667.15"/>
<polygon fill="#374151" stroke="#374151" points="220.68,-1670.65 230.68,-1667.15 220.68,-1663.65 220.68,-1670.65"/>
<text xml:space="preserve" text-anchor="middle" x="166.43" y="-1671.3" font-family="Sans-Serif" font-size="13.00" fill="#2d3436">push code</text>
</g>
<!-- c80dfe8e8f2941168f7e6dcaed402f2f -->
<g id="node3" class="node">
<title>c80dfe8e8f2941168f7e6dcaed402f2f</title>
<image xlink:href="C:\Users\Qtienle\AppData\Roaming\Python\Python314\site-packages\resources/onprem/ci\github-actions.png" width="100.8px" height="100.8px" preserveAspectRatio="xMinYMin meet" x="543.45" y="-1717.55"/>
<text xml:space="preserve" text-anchor="middle" x="593.85" y="-1604.45" font-family="Sans-Serif" font-size="12.00" fill="#2d3436">GitHub Actions</text>
<text xml:space="preserve" text-anchor="middle" x="593.85" y="-1588.7" font-family="Sans-Serif" font-size="12.00" fill="#2d3436">Test, build, scan, push</text>
</g>
<!-- 7050caf5ec9c46d0b767ee720e8e96ab&#45;&gt;c80dfe8e8f2941168f7e6dcaed402f2f -->
<g id="edge2" class="edge">
<title>7050caf5ec9c46d0b767ee720e8e96ab&#45;&gt;c80dfe8e8f2941168f7e6dcaed402f2f</title>
<path fill="none" stroke="#374151" d="M332.83,-1639.55C332.83,-1639.55 532.03,-1639.55 532.03,-1639.55"/>
<polygon fill="#374151" stroke="#374151" points="532.03,-1643.05 542.03,-1639.55 532.03,-1636.05 532.03,-1643.05"/>
<text xml:space="preserve" text-anchor="middle" x="436.73" y="-1652.3" font-family="Sans-Serif" font-size="13.00" fill="#2d3436">trigger</text>
</g>
<!-- 210ac212ed09478f87a4ec6230b204df -->
<g id="node14" class="node">
<title>210ac212ed09478f87a4ec6230b204df</title>
<image xlink:href="C:\Users\Qtienle\AppData\Roaming\Python\Python314\site-packages\resources/onprem/gitops\argocd.png" width="100.8px" height="100.8px" preserveAspectRatio="xMinYMin meet" x="800.35" y="-1202.55"/>
<text xml:space="preserve" text-anchor="middle" x="850.75" y="-1089.45" font-family="Sans-Serif" font-size="12.00" fill="#2d3436">Argo CD</text>
<text xml:space="preserve" text-anchor="middle" x="850.75" y="-1073.7" font-family="Sans-Serif" font-size="12.00" fill="#2d3436">GitOps controller</text>
</g>
<!-- 7050caf5ec9c46d0b767ee720e8e96ab&#45;&gt;210ac212ed09478f87a4ec6230b204df -->
<g id="edge14" class="edge">
<title>7050caf5ec9c46d0b767ee720e8e96ab&#45;&gt;210ac212ed09478f87a4ec6230b204df</title>
<path fill="none" stroke="#374151" d="M282.2,-1584.41C282.2,-1438.83 282.2,-1152.15 282.2,-1152.15 282.2,-1152.15 789.28,-1152.15 789.28,-1152.15"/>
<polygon fill="#374151" stroke="#374151" points="789.28,-1155.65 799.28,-1152.15 789.28,-1148.65 789.28,-1155.65"/>
<text xml:space="preserve" text-anchor="middle" x="593.85" y="-1156.3" font-family="Sans-Serif" font-size="13.00" fill="#2d3436">watch GitOps repo</text>
</g>
<!-- c80dfe8e8f2941168f7e6dcaed402f2f&#45;&gt;7050caf5ec9c46d0b767ee720e8e96ab -->
<g id="edge5" class="edge">
<title>c80dfe8e8f2941168f7e6dcaed402f2f&#45;&gt;7050caf5ec9c46d0b767ee720e8e96ab</title>
<path fill="none" stroke="#374151" d="M543.47,-1694.75C543.47,-1694.75 344.27,-1694.75 344.27,-1694.75"/>
<polygon fill="#374151" stroke="#374151" points="344.27,-1691.25 334.27,-1694.75 344.27,-1698.25 344.27,-1691.25"/>
<text xml:space="preserve" text-anchor="middle" x="436.73" y="-1724.3" font-family="Sans-Serif" font-size="13.00" fill="#2d3436">update dev values.yaml</text>
</g>
<!-- 7ee2b29ac9784d6887fa6ba25218d83e -->
<g id="node6" class="node">
<title>7ee2b29ac9784d6887fa6ba25218d83e</title>
<image xlink:href="C:\Users\Qtienle\AppData\Roaming\Python\Python314\site-packages\resources/aws/compute\ec2-container-registry.png" width="100.8px" height="100.8px" preserveAspectRatio="xMinYMin meet" x="1933.6" y="-1491.55"/>
<text xml:space="preserve" text-anchor="middle" x="1984" y="-1378.45" font-family="Sans-Serif" font-size="12.00" fill="#2d3436">Amazon ECR</text>
<text xml:space="preserve" text-anchor="middle" x="1984" y="-1362.7" font-family="Sans-Serif" font-size="12.00" fill="#2d3436">sample&#45;app images</text>
</g>
<!-- c80dfe8e8f2941168f7e6dcaed402f2f&#45;&gt;7ee2b29ac9784d6887fa6ba25218d83e -->
<g id="edge4" class="edge">
<title>c80dfe8e8f2941168f7e6dcaed402f2f&#45;&gt;7ee2b29ac9784d6887fa6ba25218d83e</title>
<path fill="none" stroke="#374151" d="M644.15,-1667.15C893.42,-1667.15 1984.2,-1667.15 1984.2,-1667.15 1984.2,-1667.15 1984.2,-1535.21 1984.2,-1535.21"/>
<polygon fill="#374151" stroke="#374151" points="1987.7,-1535.21 1984.2,-1525.21 1980.7,-1535.21 1987.7,-1535.21"/>
<text xml:space="preserve" text-anchor="middle" x="1462.6" y="-1719.3" font-family="Sans-Serif" font-size="13.00" fill="#2d3436">push image</text>
</g>
<!-- e430b7d9a5fc426aa7223ce2c4fd76df -->
<g id="node7" class="node">
<title>e430b7d9a5fc426aa7223ce2c4fd76df</title>
<image xlink:href="C:\Users\Qtienle\AppData\Roaming\Python\Python314\site-packages\resources/aws/security\identity-and-access-management-iam-role.png" width="100.8px" height="100.8px" preserveAspectRatio="xMinYMin meet" x="800.35" y="-1491.55"/>
<text xml:space="preserve" text-anchor="middle" x="850.75" y="-1378.45" font-family="Sans-Serif" font-size="12.00" fill="#2d3436">IAM Role</text>
<text xml:space="preserve" text-anchor="middle" x="850.75" y="-1362.7" font-family="Sans-Serif" font-size="12.00" fill="#2d3436">GitHub OIDC</text>
</g>
<!-- c80dfe8e8f2941168f7e6dcaed402f2f&#45;&gt;e430b7d9a5fc426aa7223ce2c4fd76df -->
<g id="edge3" class="edge">
<title>c80dfe8e8f2941168f7e6dcaed402f2f&#45;&gt;e430b7d9a5fc426aa7223ce2c4fd76df</title>
<path fill="none" stroke="#374151" d="M594.2,-1584.58C594.2,-1522.74 594.2,-1448.75 594.2,-1448.75 594.2,-1448.75 788.86,-1448.75 788.86,-1448.75"/>
<polygon fill="#374151" stroke="#374151" points="788.86,-1452.25 798.86,-1448.75 788.86,-1445.25 788.86,-1452.25"/>
<text xml:space="preserve" text-anchor="middle" x="721.73" y="-1671.3" font-family="Sans-Serif" font-size="13.00" fill="#2d3436">assume role</text>
</g>
<!-- 23ffd7ca00e6494fa479b56f9405de46 -->
<g id="node4" class="node">
<title>23ffd7ca00e6494fa479b56f9405de46</title>
<image xlink:href="C:\Users\Qtienle\AppData\Roaming\Python\Python314\site-packages\resources/onprem/iac\terraform.png" width="100.8px" height="100.8px" preserveAspectRatio="xMinYMin meet" x="543.45" y="-326.55"/>
<text xml:space="preserve" text-anchor="middle" x="593.85" y="-213.45" font-family="Sans-Serif" font-size="12.00" fill="#2d3436">Terraform</text>
<text xml:space="preserve" text-anchor="middle" x="593.85" y="-197.7" font-family="Sans-Serif" font-size="12.00" fill="#2d3436">VPC + EKS</text>
</g>
<!-- 817f45d7ad774acea595ae151e79af8e -->
<g id="node12" class="node">
<title>817f45d7ad774acea595ae151e79af8e</title>
<image xlink:href="C:\Users\Qtienle\AppData\Roaming\Python\Python314\site-packages\resources/aws/compute\elastic-kubernetes-service.png" width="100.8px" height="100.8px" preserveAspectRatio="xMinYMin meet" x="800.35" y="-767.55"/>
<text xml:space="preserve" text-anchor="middle" x="850.75" y="-654.45" font-family="Sans-Serif" font-size="12.00" fill="#2d3436">EKS Cluster</text>
<text xml:space="preserve" text-anchor="middle" x="850.75" y="-638.7" font-family="Sans-Serif" font-size="12.00" fill="#2d3436">nhf&#45;eks&#45;dev</text>
</g>
<!-- 23ffd7ca00e6494fa479b56f9405de46&#45;&gt;817f45d7ad774acea595ae151e79af8e -->
<g id="edge7" class="edge">
<title>23ffd7ca00e6494fa479b56f9405de46&#45;&gt;817f45d7ad774acea595ae151e79af8e</title>
<path fill="none" stroke="#374151" d="M577.2,-358.84C577.2,-486.53 577.2,-717.15 577.2,-717.15 577.2,-717.15 789.06,-717.15 789.06,-717.15"/>
<polygon fill="#374151" stroke="#374151" points="789.06,-720.65 799.06,-717.15 789.06,-713.65 789.06,-720.65"/>
<text xml:space="preserve" text-anchor="middle" x="721.73" y="-451.3" font-family="Sans-Serif" font-size="13.00" fill="#2d3436">create cluster</text>
</g>
<!-- 9b9c69b7213e4f18b000e972f1dbb234 -->
<g id="node27" class="node">
<title>9b9c69b7213e4f18b000e972f1dbb234</title>
<image xlink:href="C:\Users\Qtienle\AppData\Roaming\Python\Python314\site-packages\resources/aws/network\vpc.png" width="100.8px" height="100.8px" preserveAspectRatio="xMinYMin meet" x="800.35" y="-154.55"/>
<text xml:space="preserve" text-anchor="middle" x="850.75" y="-40.1" font-family="Sans-Serif" font-size="12.00" fill="#2d3436">AWS VPC</text>
</g>
<!-- 23ffd7ca00e6494fa479b56f9405de46&#45;&gt;9b9c69b7213e4f18b000e972f1dbb234 -->
<g id="edge6" class="edge">
<title>23ffd7ca00e6494fa479b56f9405de46&#45;&gt;9b9c69b7213e4f18b000e972f1dbb234</title>
<path fill="none" stroke="#374151" d="M644.08,-198.85C718.97,-198.85 851.2,-198.85 851.2,-198.85 851.2,-198.85 851.2,-183.98 851.2,-183.98"/>
<polygon fill="#374151" stroke="#374151" points="854.7,-183.98 851.2,-173.98 847.7,-183.98 854.7,-183.98"/>
<text xml:space="preserve" text-anchor="middle" x="721.73" y="-108.3" font-family="Sans-Serif" font-size="13.00" fill="#2d3436">provision</text>
</g>
<!-- a913ae1b4f2a4847ab040d3807510a82 -->
<g id="node5" class="node">
<title>a913ae1b4f2a4847ab040d3807510a82</title>
<image xlink:href="C:\Users\Qtienle\AppData\Roaming\Python\Python314\site-packages\resources/onprem/iac\ansible.png" width="100.8px" height="100.8px" preserveAspectRatio="xMinYMin meet" x="543.45" y="-1355.55"/>
<text xml:space="preserve" text-anchor="middle" x="593.85" y="-1241.1" font-family="Sans-Serif" font-size="12.00" fill="#2d3436">Ansible Bootstrap</text>
</g>
<!-- c7888f9fbb384700ba1e074331f433e6 -->
<g id="node11" class="node">
<title>c7888f9fbb384700ba1e074331f433e6</title>
<image xlink:href="C:\Users\Qtienle\AppData\Roaming\Python\Python314\site-packages\resources/onprem/network\nginx.png" width="100.8px" height="100.8px" preserveAspectRatio="xMinYMin meet" x="1412.2" y="-337.55"/>
<text xml:space="preserve" text-anchor="middle" x="1462.6" y="-224.45" font-family="Sans-Serif" font-size="12.00" fill="#2d3436">ingress&#45;nginx</text>
<text xml:space="preserve" text-anchor="middle" x="1462.6" y="-208.7" font-family="Sans-Serif" font-size="12.00" fill="#2d3436">dev traffic</text>
</g>
<!-- a913ae1b4f2a4847ab040d3807510a82&#45;&gt;c7888f9fbb384700ba1e074331f433e6 -->
<g id="edge12" class="edge">
<title>a913ae1b4f2a4847ab040d3807510a82&#45;&gt;c7888f9fbb384700ba1e074331f433e6</title>
<path fill="none" stroke="#374151" d="M644.02,-1317.82C744.36,-1317.82 960.2,-1317.82 960.2,-1317.82 960.2,-1317.82 960.2,-337.85 960.2,-337.85 960.2,-337.85 1401.08,-337.85 1401.08,-337.85"/>
<polygon fill="#374151" stroke="#374151" points="1401.08,-341.35 1411.08,-337.85 1401.08,-334.35 1401.08,-341.35"/>
<text xml:space="preserve" text-anchor="middle" x="989.28" y="-1604.3" font-family="Sans-Serif" font-size="13.00" fill="#2d3436">install</text>
</g>
<!-- a913ae1b4f2a4847ab040d3807510a82&#45;&gt;210ac212ed09478f87a4ec6230b204df -->
<g id="edge11" class="edge">
<title>a913ae1b4f2a4847ab040d3807510a82&#45;&gt;210ac212ed09478f87a4ec6230b204df</title>
<path fill="none" stroke="#374151" d="M644.08,-1277.28C718.97,-1277.28 851.2,-1277.28 851.2,-1277.28 851.2,-1277.28 851.2,-1246.43 851.2,-1246.43"/>
<polygon fill="#374151" stroke="#374151" points="854.7,-1246.43 851.2,-1236.43 847.7,-1246.43 854.7,-1246.43"/>
<text xml:space="preserve" text-anchor="middle" x="721.73" y="-1309.3" font-family="Sans-Serif" font-size="13.00" fill="#2d3436">install</text>
</g>
<!-- 33b10e5467304992aaea9af6189e63b0 -->
<g id="node15" class="node">
<title>33b10e5467304992aaea9af6189e63b0</title>
<image xlink:href="C:\Users\Qtienle\AppData\Roaming\Python\Python314\site-packages\resources/aws/network\elb-application-load-balancer.png" width="100.8px" height="100.8px" preserveAspectRatio="xMinYMin meet" x="800.35" y="-985.55"/>
<text xml:space="preserve" text-anchor="middle" x="850.75" y="-872.45" font-family="Sans-Serif" font-size="12.00" fill="#2d3436">AWS Load Balancer</text>
<text xml:space="preserve" text-anchor="middle" x="850.75" y="-856.7" font-family="Sans-Serif" font-size="12.00" fill="#2d3436">Controller</text>
</g>
<!-- a913ae1b4f2a4847ab040d3807510a82&#45;&gt;33b10e5467304992aaea9af6189e63b0 -->
<g id="edge13" class="edge">
<title>a913ae1b4f2a4847ab040d3807510a82&#45;&gt;33b10e5467304992aaea9af6189e63b0</title>
<path fill="none" stroke="#374151" d="M610.2,-1236.86C610.2,-1129.95 610.2,-935.15 610.2,-935.15 610.2,-935.15 789.1,-935.15 789.1,-935.15"/>
<polygon fill="#374151" stroke="#374151" points="789.1,-938.65 799.1,-935.15 789.1,-931.65 789.1,-938.65"/>
<text xml:space="preserve" text-anchor="middle" x="721.73" y="-1237.3" font-family="Sans-Serif" font-size="13.00" fill="#2d3436">install</text>
</g>
<!-- 3cccffae3b07440d8bdb61fd2b59a751 -->
<g id="node20" class="node">
<title>3cccffae3b07440d8bdb61fd2b59a751</title>
<image xlink:href="C:\Users\Qtienle\AppData\Roaming\Python\Python314\site-packages\resources/k8s/compute\pod.png" width="100.8px" height="100.8px" preserveAspectRatio="xMinYMin meet" x="2166.4" y="-968.55"/>
<text xml:space="preserve" text-anchor="middle" x="2216.8" y="-854.1" font-family="Sans-Serif" font-size="12.00" fill="#2d3436">FastAPI Pods</text>
</g>
<!-- 7ee2b29ac9784d6887fa6ba25218d83e&#45;&gt;3cccffae3b07440d8bdb61fd2b59a751 -->
<g id="edge19" class="edge">
<title>7ee2b29ac9784d6887fa6ba25218d83e&#45;&gt;3cccffae3b07440d8bdb61fd2b59a751</title>
<path fill="none" stroke="#374151" d="M2034.29,-1413.55C2065.7,-1413.55 2100.2,-1413.55 2100.2,-1413.55 2100.2,-1413.55 2100.2,-940.95 2100.2,-940.95 2100.2,-940.95 2155.16,-940.95 2155.16,-940.95"/>
<polygon fill="#374151" stroke="#374151" points="2155.16,-944.45 2165.16,-940.95 2155.16,-937.45 2155.16,-944.45"/>
<text xml:space="preserve" text-anchor="middle" x="2100.4" y="-1336.3" font-family="Sans-Serif" font-size="13.00" fill="#2d3436">pull image</text>
</g>
<!-- 09da9a0db4ba4af0acf97ec67c970545 -->
<g id="node24" class="node">
<title>09da9a0db4ba4af0acf97ec67c970545</title>
<image xlink:href="C:\Users\Qtienle\AppData\Roaming\Python\Python314\site-packages\resources/k8s/compute\pod.png" width="100.8px" height="100.8px" preserveAspectRatio="xMinYMin meet" x="2166.4" y="-1184.55"/>
<text xml:space="preserve" text-anchor="middle" x="2216.8" y="-1070.1" font-family="Sans-Serif" font-size="12.00" fill="#2d3436">FastAPI Pods</text>
</g>
<!-- 7ee2b29ac9784d6887fa6ba25218d83e&#45;&gt;09da9a0db4ba4af0acf97ec67c970545 -->
<g id="edge20" class="edge">
<title>7ee2b29ac9784d6887fa6ba25218d83e&#45;&gt;09da9a0db4ba4af0acf97ec67c970545</title>
<path fill="none" stroke="#374151" d="M2034.31,-1468.75C2102.87,-1468.75 2217.2,-1468.75 2217.2,-1468.75 2217.2,-1468.75 2217.2,-1213.78 2217.2,-1213.78"/>
<polygon fill="#374151" stroke="#374151" points="2220.7,-1213.78 2217.2,-1203.78 2213.7,-1213.78 2220.7,-1213.78"/>
<text xml:space="preserve" text-anchor="middle" x="2100.4" y="-1426.3" font-family="Sans-Serif" font-size="13.00" fill="#2d3436">pull image</text>
</g>
<!-- e9f5f8de64fb46bc91d2fd660fae1818 -->
<g id="node8" class="node">
<title>e9f5f8de64fb46bc91d2fd660fae1818</title>
<image xlink:href="C:\Users\Qtienle\AppData\Roaming\Python\Python314\site-packages\resources/aws/network\internet-gateway.png" width="100.8px" height="100.8px" preserveAspectRatio="xMinYMin meet" x="1077.4" y="-566.55"/>
<text xml:space="preserve" text-anchor="middle" x="1127.8" y="-452.1" font-family="Sans-Serif" font-size="12.00" fill="#2d3436">Internet Gateway</text>
</g>
<!-- 9b087d628aa54a3d9930d348996e736d -->
<g id="node10" class="node">
<title>9b087d628aa54a3d9930d348996e736d</title>
<image xlink:href="C:\Users\Qtienle\AppData\Roaming\Python\Python314\site-packages\resources/aws/network\elb-application-load-balancer.png" width="100.8px" height="100.8px" preserveAspectRatio="xMinYMin meet" x="1412.2" y="-553.55"/>
<text xml:space="preserve" text-anchor="middle" x="1462.6" y="-440.45" font-family="Sans-Serif" font-size="12.00" fill="#2d3436">AWS ALB</text>
<text xml:space="preserve" text-anchor="middle" x="1462.6" y="-424.7" font-family="Sans-Serif" font-size="12.00" fill="#2d3436">prod traffic</text>
</g>
<!-- e9f5f8de64fb46bc91d2fd660fae1818&#45;&gt;9b087d628aa54a3d9930d348996e736d -->
<g id="edge9" class="edge">
<title>e9f5f8de64fb46bc91d2fd660fae1818&#45;&gt;9b087d628aa54a3d9930d348996e736d</title>
<path fill="none" stroke="#374151" d="M1177.92,-516.15C1177.92,-516.15 1400.89,-516.15 1400.89,-516.15"/>
<polygon fill="#374151" stroke="#374151" points="1400.89,-519.65 1410.89,-516.15 1400.89,-512.65 1400.89,-519.65"/>
</g>
<!-- 8b06102cd31546548d4871618cf27e60 -->
<g id="node9" class="node">
<title>8b06102cd31546548d4871618cf27e60</title>
<image xlink:href="C:\Users\Qtienle\AppData\Roaming\Python\Python314\site-packages\resources/aws/network\nat-gateway.png" width="100.8px" height="100.8px" preserveAspectRatio="xMinYMin meet" x="800.35" y="-424.55"/>
<text xml:space="preserve" text-anchor="middle" x="850.75" y="-310.1" font-family="Sans-Serif" font-size="12.00" fill="#2d3436">NAT Gateway</text>
</g>
<!-- 3e3db3eea77f460783d583d3c3533c40 -->
<g id="node13" class="node">
<title>3e3db3eea77f460783d583d3c3533c40</title>
<image xlink:href="C:\Users\Qtienle\AppData\Roaming\Python\Python314\site-packages\resources/generic/compute\rack.png" width="100.8px" height="100.8px" preserveAspectRatio="xMinYMin meet" x="1077.4" y="-767.55"/>
<text xml:space="preserve" text-anchor="middle" x="1127.8" y="-654.45" font-family="Sans-Serif" font-size="12.00" fill="#2d3436">Managed</text>
<text xml:space="preserve" text-anchor="middle" x="1127.8" y="-638.7" font-family="Sans-Serif" font-size="12.00" fill="#2d3436">Node Group</text>
</g>
<!-- 8b06102cd31546548d4871618cf27e60&#45;&gt;3e3db3eea77f460783d583d3c3533c40 -->
<g id="edge10" class="edge">
<title>8b06102cd31546548d4871618cf27e60&#45;&gt;3e3db3eea77f460783d583d3c3533c40</title>
<path fill="none" stroke="#374151" d="M900.99,-435.15C950.31,-435.15 1018.2,-435.15 1018.2,-435.15 1018.2,-435.15 1018.2,-689.55 1018.2,-689.55 1018.2,-689.55 1065.98,-689.55 1065.98,-689.55"/>
<polygon fill="#374151" stroke="#374151" points="1065.98,-693.05 1075.98,-689.55 1065.98,-686.05 1065.98,-693.05"/>
</g>
<!-- c2b6c834fb84475e944a88498891e625 -->
<g id="node21" class="node">
<title>c2b6c834fb84475e944a88498891e625</title>
<image xlink:href="C:\Users\Qtienle\AppData\Roaming\Python\Python314\site-packages\resources/k8s/network\ing.png" width="100.8px" height="100.8px" preserveAspectRatio="xMinYMin meet" x="1586" y="-1173.55"/>
<text xml:space="preserve" text-anchor="middle" x="1636.4" y="-1060.45" font-family="Sans-Serif" font-size="12.00" fill="#2d3436">Ingress</text>
<text xml:space="preserve" text-anchor="middle" x="1636.4" y="-1044.7" font-family="Sans-Serif" font-size="12.00" fill="#2d3436">sample&#45;app&#45;prod.local</text>
</g>
<!-- 9b087d628aa54a3d9930d348996e736d&#45;&gt;c2b6c834fb84475e944a88498891e625 -->
<g id="edge28" class="edge">
<title>9b087d628aa54a3d9930d348996e736d&#45;&gt;c2b6c834fb84475e944a88498891e625</title>
<path fill="none" stroke="#374151" d="M1462.2,-585.85C1462.2,-728.09 1462.2,-1003.95 1462.2,-1003.95 1462.2,-1003.95 1636.2,-1003.95 1636.2,-1003.95 1636.2,-1003.95 1636.2,-1028.85 1636.2,-1028.85"/>
<polygon fill="#374151" stroke="#374151" points="1632.7,-1028.85 1636.2,-1038.85 1639.7,-1028.85 1632.7,-1028.85"/>
</g>
<!-- 7614dd6204bf4b3da3feeab1e3085148 -->
<g id="node17" class="node">
<title>7614dd6204bf4b3da3feeab1e3085148</title>
<image xlink:href="C:\Users\Qtienle\AppData\Roaming\Python\Python314\site-packages\resources/k8s/network\ing.png" width="100.8px" height="100.8px" preserveAspectRatio="xMinYMin meet" x="1586" y="-957.55"/>
<text xml:space="preserve" text-anchor="middle" x="1636.4" y="-844.45" font-family="Sans-Serif" font-size="12.00" fill="#2d3436">Ingress</text>
<text xml:space="preserve" text-anchor="middle" x="1636.4" y="-828.7" font-family="Sans-Serif" font-size="12.00" fill="#2d3436">sample&#45;app&#45;dev.local</text>
</g>
<!-- c7888f9fbb384700ba1e074331f433e6&#45;&gt;7614dd6204bf4b3da3feeab1e3085148 -->
<g id="edge22" class="edge">
<title>c7888f9fbb384700ba1e074331f433e6&#45;&gt;7614dd6204bf4b3da3feeab1e3085148</title>
<path fill="none" stroke="#374151" d="M1512.81,-287.15C1564.08,-287.15 1636.2,-287.15 1636.2,-287.15 1636.2,-287.15 1636.2,-812.98 1636.2,-812.98"/>
<polygon fill="#374151" stroke="#374151" points="1632.7,-812.98 1636.2,-822.98 1639.7,-812.98 1632.7,-812.98"/>
</g>
<!-- 817f45d7ad774acea595ae151e79af8e&#45;&gt;3e3db3eea77f460783d583d3c3533c40 -->
<g id="edge8" class="edge">
<title>817f45d7ad774acea595ae151e79af8e&#45;&gt;3e3db3eea77f460783d583d3c3533c40</title>
<path fill="none" stroke="#374151" d="M900.92,-744.75C900.92,-744.75 1066.02,-744.75 1066.02,-744.75"/>
<polygon fill="#374151" stroke="#374151" points="1066.02,-748.25 1076.02,-744.75 1066.02,-741.25 1066.02,-748.25"/>
</g>
<!-- 7ad3d69eaa274243ae686b96568745e5 -->
<g id="node16" class="node">
<title>7ad3d69eaa274243ae686b96568745e5</title>
<image xlink:href="C:\Users\Qtienle\AppData\Roaming\Python\Python314\site-packages\resources/k8s/ecosystem\helm.png" width="100.8px" height="116.55px" preserveAspectRatio="xMinYMin meet" x="1077.4" y="-1202.43"/>
<text xml:space="preserve" text-anchor="middle" x="1127.8" y="-1081.45" font-family="Sans-Serif" font-size="12.00" fill="#2d3436">Helm chart</text>
<text xml:space="preserve" text-anchor="middle" x="1127.8" y="-1065.7" font-family="Sans-Serif" font-size="12.00" fill="#2d3436">sample&#45;app</text>
</g>
<!-- 210ac212ed09478f87a4ec6230b204df&#45;&gt;7ad3d69eaa274243ae686b96568745e5 -->
<g id="edge15" class="edge">
<title>210ac212ed09478f87a4ec6230b204df&#45;&gt;7ad3d69eaa274243ae686b96568745e5</title>
<path fill="none" stroke="#374151" d="M900.92,-1148.15C900.92,-1148.15 1066.02,-1148.15 1066.02,-1148.15"/>
<polygon fill="#374151" stroke="#374151" points="1066.02,-1151.65 1076.02,-1148.15 1066.02,-1144.65 1066.02,-1151.65"/>
<text xml:space="preserve" text-anchor="middle" x="989.28" y="-1152.3" font-family="Sans-Serif" font-size="13.00" fill="#2d3436">sync Helm release</text>
</g>
<!-- 33b10e5467304992aaea9af6189e63b0&#45;&gt;9b087d628aa54a3d9930d348996e736d -->
<g id="edge27" class="edge">
<title>33b10e5467304992aaea9af6189e63b0&#45;&gt;9b087d628aa54a3d9930d348996e736d</title>
<path fill="none" stroke="#374151" d="M901,-898.22C1043.04,-898.22 1437.2,-898.22 1437.2,-898.22 1437.2,-898.22 1437.2,-597 1437.2,-597"/>
<polygon fill="#374151" stroke="#374151" points="1440.7,-597 1437.2,-587 1433.7,-597 1440.7,-597"/>
<text xml:space="preserve" text-anchor="middle" x="1127.8" y="-385.3" font-family="Sans-Serif" font-size="13.00" fill="#2d3436">manages</text>
</g>
<!-- 0e191d235ced4daaa1ab9a3cefcf3c07 -->
<g id="node25" class="node">
<title>0e191d235ced4daaa1ab9a3cefcf3c07</title>
<image xlink:href="C:\Users\Qtienle\AppData\Roaming\Python\Python314\site-packages\resources/k8s/podconfig\secret.png" width="100.8px" height="100.8px" preserveAspectRatio="xMinYMin meet" x="1412.2" y="-1173.55"/>
<text xml:space="preserve" text-anchor="middle" x="1462.6" y="-1060.45" font-family="Sans-Serif" font-size="12.00" fill="#2d3436">Helm values</text>
<text xml:space="preserve" text-anchor="middle" x="1462.6" y="-1044.7" font-family="Sans-Serif" font-size="12.00" fill="#2d3436">dev/prod</text>
</g>
<!-- 7ad3d69eaa274243ae686b96568745e5&#45;&gt;0e191d235ced4daaa1ab9a3cefcf3c07 -->
<g id="edge16" class="edge">
<title>7ad3d69eaa274243ae686b96568745e5&#45;&gt;0e191d235ced4daaa1ab9a3cefcf3c07</title>
<path fill="none" stroke="#374151" d="M1177.92,-1133.65C1177.92,-1133.65 1400.89,-1133.65 1400.89,-1133.65"/>
<polygon fill="#374151" stroke="#374151" points="1400.89,-1137.15 1410.89,-1133.65 1400.89,-1130.15 1400.89,-1137.15"/>
</g>
<!-- 1419738f9f314a4e94e8651b69e15fc1 -->
<g id="node18" class="node">
<title>1419738f9f314a4e94e8651b69e15fc1</title>
<image xlink:href="C:\Users\Qtienle\AppData\Roaming\Python\Python314\site-packages\resources/k8s/network\svc.png" width="100.8px" height="100.8px" preserveAspectRatio="xMinYMin meet" x="1759.8" y="-957.55"/>
<text xml:space="preserve" text-anchor="middle" x="1810.2" y="-844.45" font-family="Sans-Serif" font-size="12.00" fill="#2d3436">Service</text>
<text xml:space="preserve" text-anchor="middle" x="1810.2" y="-828.7" font-family="Sans-Serif" font-size="12.00" fill="#2d3436">sample&#45;app:80</text>
</g>
<!-- 7614dd6204bf4b3da3feeab1e3085148&#45;&gt;1419738f9f314a4e94e8651b69e15fc1 -->
<g id="edge23" class="edge">
<title>7614dd6204bf4b3da3feeab1e3085148&#45;&gt;1419738f9f314a4e94e8651b69e15fc1</title>
<path fill="none" stroke="#374151" d="M1686.67,-907.15C1686.67,-907.15 1748.53,-907.15 1748.53,-907.15"/>
<polygon fill="#374151" stroke="#374151" points="1748.53,-910.65 1758.53,-907.15 1748.53,-903.65 1748.53,-910.65"/>
</g>
<!-- f62232c843a546179faf9b4a3af99a94 -->
<g id="node19" class="node">
<title>f62232c843a546179faf9b4a3af99a94</title>
<image xlink:href="C:\Users\Qtienle\AppData\Roaming\Python\Python314\site-packages\resources/k8s/compute\deploy.png" width="100.8px" height="100.8px" preserveAspectRatio="xMinYMin meet" x="1933.6" y="-957.55"/>
<text xml:space="preserve" text-anchor="middle" x="1984" y="-844.45" font-family="Sans-Serif" font-size="12.00" fill="#2d3436">Deployment</text>
<text xml:space="preserve" text-anchor="middle" x="1984" y="-828.7" font-family="Sans-Serif" font-size="12.00" fill="#2d3436">sample&#45;app</text>
</g>
<!-- 1419738f9f314a4e94e8651b69e15fc1&#45;&gt;f62232c843a546179faf9b4a3af99a94 -->
<g id="edge24" class="edge">
<title>1419738f9f314a4e94e8651b69e15fc1&#45;&gt;f62232c843a546179faf9b4a3af99a94</title>
<path fill="none" stroke="#374151" d="M1860.47,-907.15C1860.47,-907.15 1922.33,-907.15 1922.33,-907.15"/>
<polygon fill="#374151" stroke="#374151" points="1922.33,-910.65 1932.33,-907.15 1922.33,-903.65 1922.33,-910.65"/>
</g>
<!-- f62232c843a546179faf9b4a3af99a94&#45;&gt;3cccffae3b07440d8bdb61fd2b59a751 -->
<g id="edge25" class="edge">
<title>f62232c843a546179faf9b4a3af99a94&#45;&gt;3cccffae3b07440d8bdb61fd2b59a751</title>
<path fill="none" stroke="#374151" d="M2034.23,-895.35C2034.23,-895.35 2155.15,-895.35 2155.15,-895.35"/>
<polygon fill="#374151" stroke="#374151" points="2155.15,-898.85 2165.15,-895.35 2155.15,-891.85 2155.15,-898.85"/>
</g>
<!-- 0349e2c0ced743f389ee77a8ab8123a2 -->
<g id="node22" class="node">
<title>0349e2c0ced743f389ee77a8ab8123a2</title>
<image xlink:href="C:\Users\Qtienle\AppData\Roaming\Python\Python314\site-packages\resources/k8s/network\svc.png" width="100.8px" height="100.8px" preserveAspectRatio="xMinYMin meet" x="1759.8" y="-1173.55"/>
<text xml:space="preserve" text-anchor="middle" x="1810.2" y="-1060.45" font-family="Sans-Serif" font-size="12.00" fill="#2d3436">Service</text>
<text xml:space="preserve" text-anchor="middle" x="1810.2" y="-1044.7" font-family="Sans-Serif" font-size="12.00" fill="#2d3436">sample&#45;app:80</text>
</g>
<!-- c2b6c834fb84475e944a88498891e625&#45;&gt;0349e2c0ced743f389ee77a8ab8123a2 -->
<g id="edge29" class="edge">
<title>c2b6c834fb84475e944a88498891e625&#45;&gt;0349e2c0ced743f389ee77a8ab8123a2</title>
<path fill="none" stroke="#374151" d="M1686.67,-1123.15C1686.67,-1123.15 1748.53,-1123.15 1748.53,-1123.15"/>
<polygon fill="#374151" stroke="#374151" points="1748.53,-1126.65 1758.53,-1123.15 1748.53,-1119.65 1748.53,-1126.65"/>
</g>
<!-- 50e0f8204f1a424bae5a345b1b165794 -->
<g id="node23" class="node">
<title>50e0f8204f1a424bae5a345b1b165794</title>
<image xlink:href="C:\Users\Qtienle\AppData\Roaming\Python\Python314\site-packages\resources/k8s/compute\deploy.png" width="100.8px" height="100.8px" preserveAspectRatio="xMinYMin meet" x="1933.6" y="-1173.55"/>
<text xml:space="preserve" text-anchor="middle" x="1984" y="-1060.45" font-family="Sans-Serif" font-size="12.00" fill="#2d3436">Deployment</text>
<text xml:space="preserve" text-anchor="middle" x="1984" y="-1044.7" font-family="Sans-Serif" font-size="12.00" fill="#2d3436">sample&#45;app</text>
</g>
<!-- 0349e2c0ced743f389ee77a8ab8123a2&#45;&gt;50e0f8204f1a424bae5a345b1b165794 -->
<g id="edge30" class="edge">
<title>0349e2c0ced743f389ee77a8ab8123a2&#45;&gt;50e0f8204f1a424bae5a345b1b165794</title>
<path fill="none" stroke="#374151" d="M1860.47,-1123.15C1860.47,-1123.15 1922.33,-1123.15 1922.33,-1123.15"/>
<polygon fill="#374151" stroke="#374151" points="1922.33,-1126.65 1932.33,-1123.15 1922.33,-1119.65 1922.33,-1126.65"/>
</g>
<!-- 50e0f8204f1a424bae5a345b1b165794&#45;&gt;09da9a0db4ba4af0acf97ec67c970545 -->
<g id="edge31" class="edge">
<title>50e0f8204f1a424bae5a345b1b165794&#45;&gt;09da9a0db4ba4af0acf97ec67c970545</title>
<path fill="none" stroke="#374151" d="M2034.23,-1134.15C2034.23,-1134.15 2155.15,-1134.15 2155.15,-1134.15"/>
<polygon fill="#374151" stroke="#374151" points="2155.15,-1137.65 2165.15,-1134.15 2155.15,-1130.65 2155.15,-1137.65"/>
</g>
<!-- 0e191d235ced4daaa1ab9a3cefcf3c07&#45;&gt;7614dd6204bf4b3da3feeab1e3085148 -->
<g id="edge17" class="edge">
<title>0e191d235ced4daaa1ab9a3cefcf3c07&#45;&gt;7614dd6204bf4b3da3feeab1e3085148</title>
<path fill="none" stroke="#374151" d="M1488.2,-1040.43C1488.2,-993.51 1488.2,-944.08 1488.2,-944.08 1488.2,-944.08 1574.71,-944.08 1574.71,-944.08"/>
<polygon fill="#374151" stroke="#374151" points="1574.71,-947.58 1584.71,-944.08 1574.71,-940.58 1574.71,-947.58"/>
</g>
<!-- 0e191d235ced4daaa1ab9a3cefcf3c07&#45;&gt;c2b6c834fb84475e944a88498891e625 -->
<g id="edge18" class="edge">
<title>0e191d235ced4daaa1ab9a3cefcf3c07&#45;&gt;c2b6c834fb84475e944a88498891e625</title>
<path fill="none" stroke="#374151" d="M1512.87,-1123.15C1512.87,-1123.15 1574.73,-1123.15 1574.73,-1123.15"/>
<polygon fill="#374151" stroke="#374151" points="1574.73,-1126.65 1584.73,-1123.15 1574.73,-1119.65 1574.73,-1126.65"/>
</g>
<!-- 4990e10fedec4229a518f120c404d026 -->
<g id="node26" class="node">
<title>4990e10fedec4229a518f120c404d026</title>
<image xlink:href="C:\Users\Qtienle\AppData\Roaming\Python\Python314\site-packages\resources/onprem/client\user.png" width="100.8px" height="100.8px" preserveAspectRatio="xMinYMin meet" x="1077.4" y="-154.55"/>
<text xml:space="preserve" text-anchor="middle" x="1127.8" y="-40.1" font-family="Sans-Serif" font-size="12.00" fill="#2d3436">User / Tester</text>
</g>
<!-- 4990e10fedec4229a518f120c404d026&#45;&gt;9b087d628aa54a3d9930d348996e736d -->
<g id="edge26" class="edge">
<title>4990e10fedec4229a518f120c404d026&#45;&gt;9b087d628aa54a3d9930d348996e736d</title>
<path fill="none" stroke="#374151" d="M1111.2,-172.38C1111.2,-267.32 1111.2,-427.75 1111.2,-427.75 1111.2,-427.75 1400.74,-427.75 1400.74,-427.75"/>
<polygon fill="#374151" stroke="#374151" points="1400.74,-431.25 1410.74,-427.75 1400.74,-424.25 1400.74,-431.25"/>
<text xml:space="preserve" text-anchor="middle" x="1295.2" y="-325.8" font-family="Sans-Serif" font-size="13.00" fill="#2d3436">prod HTTP</text>
<text xml:space="preserve" text-anchor="middle" x="1295.2" y="-309.3" font-family="Sans-Serif" font-size="13.00" fill="#2d3436">Host: sample&#45;app&#45;prod.local</text>
</g>
<!-- 4990e10fedec4229a518f120c404d026&#45;&gt;c7888f9fbb384700ba1e074331f433e6 -->
<g id="edge21" class="edge">
<title>4990e10fedec4229a518f120c404d026&#45;&gt;c7888f9fbb384700ba1e074331f433e6</title>
<path fill="none" stroke="#374151" d="M1144.2,-172.54C1144.2,-212.46 1144.2,-255.05 1144.2,-255.05 1144.2,-255.05 1400.99,-255.05 1400.99,-255.05"/>
<polygon fill="#374151" stroke="#374151" points="1400.99,-258.55 1410.99,-255.05 1400.99,-251.55 1400.99,-258.55"/>
<text xml:space="preserve" text-anchor="middle" x="1295.2" y="-162.8" font-family="Sans-Serif" font-size="13.00" fill="#2d3436">dev HTTP</text>
<text xml:space="preserve" text-anchor="middle" x="1295.2" y="-146.3" font-family="Sans-Serif" font-size="13.00" fill="#2d3436">Host: sample&#45;app&#45;dev.local</text>
</g>
</g>
</svg>
